<?xml version="1.0" standalone="no"?>
<!DOCTYPE svg PUBLIC "-//W3C//DTD SVG 20010904//EN"
 "http://www.w3.org/TR/2001/REC-SVG-20010904/DTD/svg10.dtd">
<svg version="1.0" xmlns="http://www.w3.org/2000/svg"
 width="1350.000000pt" height="650.000000pt" viewBox="0 0 1350.000000 650.000000"
 preserveAspectRatio="xMidYMid meet">

<g transform="translate(0.000000,650.000000) scale(0.100000,-0.100000)"
fill="#000000" stroke="none">
<path d="M0 3250 l0 -3250 6750 0 6750 0 0 3250 0 3250 -6750 0 -6750 0 0
-3250z m2947 2014 c-3 -3 -12 -4 -19 -1 -8 3 -5 6 6 6 11 1 17 -2 13 -5z m116
-1 c-7 -2 -19 -2 -25 0 -7 3 -2 5 12 5 14 0 19 -2 13 -5z m42 -11 c-3 -3 -11
0 -18 7 -9 10 -8 11 6 5 10 -3 15 -9 12 -12z m92 12 c-3 -3 -12 -4 -19 -1 -8
3 -5 6 6 6 11 1 17 -2 13 -5z m533 -15 c38 1 71 -9 65 -18 -3 -5 1 -12 7 -14
7 -3 3 -6 -9 -6 -13 -1 -23 2 -23 7 0 6 -84 13 -197 16 -24 0 -43 4 -43 8 0
12 -48 10 -55 -2 -4 -6 -11 -8 -16 -4 -6 3 -60 8 -121 10 -61 2 -113 6 -116 9
-4 3 104 3 238 0 135 -4 256 -6 270 -6z m515 -34 c88 -9 169 -16 180 -16 61
-4 241 -22 390 -40 881 -104 1765 -302 2595 -578 412 -137 649 -228 1112 -427
420 -180 1117 -533 1413 -717 44 -27 72 -47 62 -43 -11 3 -16 2 -12 -5 4 -6
14 -8 22 -5 17 7 161 -77 378 -219 77 -50 178 -115 225 -145 91 -57 132 -90
113 -90 -7 0 -24 11 -39 25 -29 27 -55 35 -35 11 9 -11 9 -15 -1 -18 -8 -3 -4
-10 12 -18 23 -12 24 -12 11 3 -8 10 -9 17 -3 17 12 0 25 -18 28 -37 3 -19
-11 -16 -43 10 -15 13 -37 29 -48 36 -19 11 -18 12 5 6 23 -5 23 -5 8 8 -10 8
-16 16 -14 18 3 2 -7 5 -20 5 -15 1 -22 -2 -17 -10 3 -6 1 -6 -8 2 -7 6 -18
12 -23 12 -6 0 5 -14 24 -31 19 -17 26 -26 15 -21 -23 11 -61 51 -58 61 1 3
-5 5 -13 4 -9 0 -13 2 -10 5 10 9 -33 34 -46 26 -8 -5 -9 -2 -5 9 3 9 2 19 -3
22 -4 3 -7 13 -5 23 4 29 -249 183 -308 187 -37 2 -19 -15 21 -20 50 -6 272
-144 272 -169 0 -5 -8 -2 -17 6 -28 24 -133 81 -133 71 0 -4 29 -24 63 -43 44
-25 62 -41 63 -56 1 -12 4 -26 8 -33 4 -6 1 -11 -8 -11 -8 0 -19 7 -24 16 -8
15 -12 15 -31 2 -11 -8 -18 -18 -13 -23 4 -4 -3 -2 -15 4 -27 14 -31 23 -6 14
11 -4 14 -3 9 5 -5 8 -1 10 10 5 11 -4 15 -3 10 5 -4 7 6 12 26 14 32 3 31 4
-42 48 -41 25 -83 48 -93 52 -10 4 -16 12 -12 17 3 6 -4 15 -15 21 -13 7 -20
7 -20 0 0 -5 6 -10 13 -11 9 0 9 -2 -1 -6 -9 -4 -10 -8 -2 -18 9 -11 6 -12
-12 -8 -21 4 -22 3 -6 -10 10 -8 16 -16 14 -18 -3 -2 7 -5 20 -5 20 -2 23 1
13 12 -9 12 -6 12 20 3 17 -6 31 -13 31 -16 0 -3 -7 -3 -15 1 -17 6 -20 -5 -5
-20 6 -6 -1 -9 -18 -8 -37 2 -62 14 -62 29 0 8 -8 11 -19 8 -10 -3 -22 0 -25
6 -4 6 -18 11 -32 11 -15 0 -24 6 -24 15 0 8 -5 15 -11 15 -5 0 -7 -4 -4 -10
3 -5 2 -10 -3 -10 -16 0 -22 13 -11 27 9 10 7 13 -10 13 -11 0 -21 -6 -21 -12
0 -10 -3 -9 -9 1 -5 7 -14 10 -20 7 -7 -5 -10 -2 -9 6 3 13 -2 15 -62 17 -29
1 -32 3 -17 12 9 5 22 7 27 4 6 -3 10 -2 10 4 0 12 -35 33 -43 25 -9 -9 -75
24 -134 67 -32 24 -91 57 -131 75 -40 17 -76 35 -79 38 -13 12 -22 5 -16 -11
7 -17 6 -17 -19 -1 -20 13 -28 14 -31 5 -3 -8 -10 -6 -23 7 -18 18 -18 18 -1
13 11 -4 16 -3 12 3 -3 6 -17 7 -31 4 -16 -4 -26 -1 -30 9 -3 9 -14 14 -24 12
-12 -2 -17 1 -14 8 2 7 -11 20 -31 29 -19 8 -35 11 -35 6 0 -5 -10 1 -22 12
-12 11 -27 19 -33 16 -6 -2 -28 7 -49 19 -21 13 -44 21 -51 18 -7 -2 -16 0
-20 6 -4 7 1 9 12 5 13 -4 11 0 -6 14 -14 11 -41 23 -62 26 -20 3 -42 13 -49
21 -7 8 -33 24 -58 35 -25 11 -43 23 -40 26 9 8 56 -7 69 -22 19 -24 30 -16
14 10 -15 23 -53 48 -40 26 8 -12 0 -13 -23 -1 -9 5 -28 13 -42 19 -93 37
-238 102 -310 138 -75 37 -170 65 -170 50 0 -3 18 -10 40 -16 22 -6 38 -15 35
-20 -3 -6 1 -7 9 -4 17 6 112 -43 159 -82 35 -29 16 -31 -28 -4 -19 11 -37 20
-42 19 -20 -3 -34 2 -28 11 3 5 13 7 23 4 9 -3 6 1 -8 10 -21 13 -27 13 -36 1
-8 -11 -12 -10 -22 6 -7 10 -20 19 -29 19 -27 0 -125 52 -113 60 7 5 2 9 -13
12 -36 7 -55 -6 -31 -21 11 -6 15 -11 11 -11 -5 0 -20 9 -34 20 -14 11 -32 20
-39 20 -8 0 -14 7 -14 15 0 18 -17 20 -23 3 -3 -10 -9 -10 -26 0 -11 6 -31 18
-43 25 -32 17 -72 47 -64 47 4 0 30 -12 58 -26 38 -19 53 -23 62 -14 8 9 6 11
-9 8 -12 -2 -19 2 -18 10 2 6 0 13 -5 14 -18 3 -69 9 -89 10 -13 0 -23 4 -23
10 0 5 -4 6 -10 3 -5 -3 -10 -1 -10 4 0 6 -7 11 -15 11 -8 0 -15 5 -15 12 0 6
-3 8 -7 5 -3 -4 -15 0 -25 10 -10 9 -21 13 -24 10 -4 -3 -18 0 -33 7 -35 18
-103 37 -96 26 3 -5 37 -21 75 -36 38 -15 78 -36 87 -47 18 -20 18 -20 -16 -3
-18 10 -30 13 -27 7 4 -6 3 -11 -3 -11 -5 0 -12 4 -15 9 -13 20 -194 94 -209
84 -6 -3 -7 -1 -3 5 4 7 15 12 24 13 9 1 -23 14 -72 30 -49 16 -92 27 -94 24
-6 -5 102 -55 119 -55 6 0 7 -5 4 -10 -4 -6 10 -17 30 -26 21 -8 35 -17 32
-20 -7 -7 -77 28 -77 38 0 5 -4 6 -10 3 -5 -3 -37 15 -71 39 -34 25 -66 43
-71 40 -5 -3 -14 -1 -21 5 -7 5 -26 12 -42 15 -17 3 -36 14 -43 23 -7 10 -17
17 -21 16 -5 -1 -19 9 -31 22 -23 25 -14 33 18 16 31 -15 74 -23 67 -11 -5 8
9 9 47 5 39 -5 49 -4 38 4 -8 6 -23 11 -33 11 -10 0 -20 7 -23 15 -4 8 -18 15
-34 15 -19 0 -29 6 -33 19 -3 12 -23 25 -58 36 -30 9 -59 24 -66 32 -14 18
-65 10 -84 -13 -10 -12 -8 -19 10 -37 25 -27 27 -39 5 -30 -8 3 -20 16 -25 29
-8 24 -29 33 -29 14 0 -5 5 -10 12 -10 6 0 9 -2 7 -5 -11 -11 -47 8 -42 21 4
12 -4 15 -38 13 -71 -4 -284 45 -274 62 4 5 -3 9 -14 9 -29 0 -51 10 -51 24 0
6 -8 12 -17 12 -46 2 -144 24 -172 38 -16 9 -43 16 -58 16 -15 1 -41 7 -58 15
l-30 13 40 -4 c38 -4 39 -4 10 6 -16 6 -38 8 -47 6 -10 -2 -18 0 -18 5 0 5
-15 9 -34 9 -19 0 -38 5 -41 10 -3 6 -2 10 3 10 6 0 12 6 15 14 4 9 -2 14 -16
14 -33 -1 -133 21 -172 38 -19 8 -38 13 -42 12 -15 -4 -53 13 -48 21 4 8 -60
31 -86 31 -24 0 13 -20 37 -20 12 0 24 -7 28 -15 6 -17 -9 -21 -19 -5 -3 6
-29 10 -56 10 -28 0 -48 3 -46 8 3 4 -2 13 -10 21 -13 12 -14 11 -8 -9 6 -20
5 -22 -11 -15 -11 4 -29 10 -42 12 -12 3 -25 9 -28 14 -8 14 30 11 44 -3 9 -9
12 -8 12 5 0 16 -14 20 -105 31 -22 3 -51 9 -65 15 l-25 10 30 2 c18 1 23 3
12 6 -9 2 -15 8 -12 13 3 4 -12 -1 -32 -11 -21 -11 -46 -16 -56 -13 -13 4 -17
2 -13 -5 4 -6 18 -11 31 -11 13 0 27 -4 30 -10 8 -12 7 -12 -54 1 -28 6 -52
17 -55 26 -5 13 -9 13 -23 2 -13 -11 -17 -11 -20 -1 -3 6 -9 10 -14 6 -15 -9
-49 6 -49 22 0 8 -7 14 -16 14 -25 0 -94 22 -94 30 0 11 55 20 58 9 5 -12 62
-12 62 0 0 5 -24 12 -52 16 -29 4 -64 9 -78 11 -14 2 -54 8 -90 14 -36 6 -91
10 -123 10 -32 -1 -65 4 -73 10 -7 7 -30 13 -51 15 -21 2 -69 10 -108 18 -38
8 -106 20 -150 25 -44 6 -123 20 -175 31 -102 23 -127 27 -205 36 -27 3 -81
10 -118 16 -37 6 -74 8 -82 5 -8 -3 -17 -2 -19 3 -3 4 -31 9 -62 10 -32 1 -65
6 -75 12 -10 5 -36 9 -58 9 -22 0 -43 5 -47 11 -4 8 -9 8 -17 0 -18 -18 -67
-14 -68 7 0 10 -3 12 -6 5 -2 -7 -12 -13 -21 -13 -15 0 -15 2 -2 10 14 9 7 14
-13 11 -5 -1 -6 2 -4 6 6 10 200 -1 432 -22z m1095 -254 c0 -17 -15 -19 -35
-5 -18 13 -18 14 8 14 15 0 27 -4 27 -9z m420 -121 c13 -8 13 -10 -2 -10 -9 0
-20 5 -23 10 -8 13 5 13 25 0z m265 -100 l20 -9 -20 0 c-11 0 -27 4 -35 9 -13
9 -13 10 0 9 8 0 24 -4 35 -9z m239 -18 c75 -21 124 -43 61 -28 -29 7 -29 7
-10 -8 11 -8 28 -16 37 -16 9 0 20 -5 24 -11 4 -7 0 -9 -12 -6 -11 3 -34 8
-52 12 -18 4 -30 10 -27 15 3 4 -21 16 -52 25 -32 9 -71 23 -88 30 l-30 13 35
-2 c19 -2 71 -13 114 -24z m-169 -20 c-3 -3 -11 0 -18 7 -9 10 -8 11 6 5 10
-3 15 -9 12 -12z m330 -62 c3 -5 1 -10 -4 -10 -6 0 -11 5 -11 10 0 6 2 10 4
10 3 0 8 -4 11 -10z m40 -28 c-3 -3 -11 0 -18 7 -9 10 -8 11 6 5 10 -3 15 -9
12 -12z m115 -22 c8 -5 11 -10 5 -10 -5 0 -17 5 -25 10 -8 5 -10 10 -5 10 6 0
17 -5 25 -10z m68 -22 c15 -15 16 -28 2 -28 -5 0 -10 6 -10 14 0 8 -10 17 -22
19 -21 4 -21 4 -2 6 11 0 25 -4 32 -11z m122 -28 c0 -5 -9 -10 -21 -10 -11 0
-17 5 -14 10 3 6 13 10 21 10 8 0 14 -4 14 -10z m-40 -35 c32 -18 5 -19 -35 0
-23 10 -25 13 -10 14 11 0 31 -6 45 -14z m155 -43 c-3 -3 -11 0 -18 7 -9 10
-8 11 6 5 10 -3 15 -9 12 -12z m152 -38 c-3 -3 -12 -4 -19 -1 -8 3 -5 6 6 6
11 1 17 -2 13 -5z m383 -15 c10 -7 0 -8 -30 -3 -66 10 -97 26 -35 18 28 -3 57
-10 65 -15z m-240 -24 c7 -8 16 -13 20 -10 5 3 11 1 15 -5 4 -6 -5 -10 -19
-10 -16 0 -26 6 -26 14 0 8 -8 17 -17 19 -15 4 -15 5 -2 6 9 0 22 -6 29 -14z
m88 4 c21 1 32 -4 32 -13 0 -8 6 -16 13 -19 6 -2 -7 -4 -30 -3 -22 0 -39 4
-37 7 2 4 -11 14 -29 24 -24 12 -26 15 -7 10 14 -4 40 -7 58 -6z m117 1 l20
-9 -20 0 c-11 0 -29 4 -40 9 l-20 9 20 0 c11 0 29 -4 40 -9z m70 -30 c3 -5 2
-10 -4 -10 -5 0 -13 5 -16 10 -3 6 -2 10 4 10 5 0 13 -4 16 -10z m-77 -42 c3
2 8 -1 10 -7 2 -6 0 -11 -5 -11 -14 0 -29 15 -36 35 l-7 20 15 -20 c9 -11 19
-19 23 -17z m-43 2 c3 -5 1 -10 -4 -10 -6 0 -11 5 -11 10 0 6 2 10 4 10 3 0 8
-4 11 -10z m212 -88 c40 -16 56 -32 33 -32 -18 0 -110 45 -110 54 0 9 7 6 77
-22z m93 -52 c12 -8 11 -10 -7 -10 -12 0 -25 5 -28 10 -8 13 15 13 35 0z m50
-35 c14 -8 21 -14 15 -14 -5 0 -21 6 -35 14 -14 8 -20 14 -15 14 6 0 21 -6 35
-14z m165 -45 c3 -6 -1 -7 -9 -4 -18 7 -21 14 -7 14 6 0 13 -4 16 -10z m-478
-36 c-3 -3 -12 -4 -19 -1 -8 3 -5 6 6 6 11 1 17 -2 13 -5z m703 -10 c0 -2 -12
-4 -27 -4 -21 0 -24 3 -14 9 13 8 41 5 41 -5z m-5 -84 c3 -5 2 -10 -4 -10 -5
0 -13 5 -16 10 -3 6 -2 10 4 10 5 0 13 -4 16 -10z m155 -96 c0 -2 -9 0 -20 6
-11 6 -20 13 -20 16 0 2 9 0 20 -6 11 -6 20 -13 20 -16z m460 -94 c9 -16 8
-18 -5 -14 -8 4 -15 12 -15 20 0 20 7 17 20 -6z m160 -53 c-4 -5 -18 -2 -31 7
-13 8 -28 16 -34 17 -5 0 -9 5 -7 10 1 5 -4 9 -12 9 -7 0 -20 7 -27 17 -8 9
13 2 52 -18 37 -19 63 -38 59 -42z m25 -27 c3 -6 -1 -7 -9 -4 -18 7 -21 14 -7
14 6 0 13 -4 16 -10z m89 -29 c10 -10 37 -24 62 -30 24 -6 44 -16 44 -21 0
-14 -3 -13 -70 17 -33 14 -57 30 -55 34 3 4 -3 10 -12 12 -15 4 -15 5 -2 6 9
0 24 -8 33 -18z m150 -70 c4 -5 -1 -8 -9 -7 -21 3 -31 16 -12 16 9 0 18 -4 21
-9z m90 -40 c4 -5 -3 -7 -14 -4 -23 6 -26 13 -6 13 8 0 17 -4 20 -9z m90 -47
c25 -14 46 -28 46 -30 0 -5 -64 28 -90 45 -29 20 -2 11 44 -15z m96 -54 c8 -5
11 -10 5 -10 -5 0 -17 5 -25 10 -8 5 -10 10 -5 10 6 0 17 -5 25 -10z m57 -36
c-3 -3 -12 -4 -19 -1 -8 3 -5 6 6 6 11 1 17 -2 13 -5z m102 -20 c14 -12 -19
-1 -35 12 -18 14 -18 14 6 3 14 -6 27 -13 29 -15z m134 -46 c78 -45 137 -88
137 -100 0 -17 -28 -7 -33 12 -3 11 -13 20 -22 20 -9 0 -13 -5 -9 -11 3 -6 -5
-3 -20 6 -14 10 -26 14 -26 11 0 -3 -18 6 -40 20 -22 15 -37 30 -34 35 3 5 10
6 16 3 7 -4 8 -2 4 5 -6 9 -11 9 -23 0 -12 -10 -19 -8 -39 14 -24 26 -24 27
-4 27 12 0 54 -19 93 -42z m556 -294 c14 -12 -19 -1 -35 12 -18 14 -18 14 6 3
14 -6 27 -13 29 -15z m81 16 c0 -5 -2 -10 -4 -10 -3 0 -8 5 -11 10 -3 6 -1 10
4 10 6 0 11 -4 11 -10z m48 -65 c-3 -3 -9 2 -12 12 -6 14 -5 15 5 6 7 -7 10
-15 7 -18z m107 15 c3 -5 1 -10 -4 -10 -6 0 -11 5 -11 10 0 6 2 10 4 10 3 0 8
-4 11 -10z m-45 -40 c8 -5 10 -10 4 -10 -7 0 -22 9 -35 21 -19 16 -20 18 -4
10 11 -6 27 -15 35 -21z m91 -77 c12 -16 12 -17 -1 -7 -8 6 -22 14 -30 17 -13
5 -12 6 1 6 9 1 23 -7 30 -16z m259 -9 c0 -2 -9 0 -20 6 -11 6 -20 13 -20 16
0 2 9 0 20 -6 11 -6 20 -13 20 -16z m6 -30 c38 -26 68 -51 67 -55 -2 -5 4 -9
12 -9 9 0 18 -7 21 -15 3 -8 15 -17 26 -21 11 -3 17 -8 15 -11 -10 -10 -47 9
-47 23 0 8 -4 13 -9 9 -5 -3 -12 -1 -16 5 -3 5 -12 10 -20 10 -21 0 -129 78
-131 95 -3 23 8 19 82 -31z m196 -107 c15 -12 26 -23 23 -25 -6 -7 -85 49 -85
59 0 5 -6 9 -13 9 -8 0 -24 12 -38 27 -20 22 -14 20 31 -12 30 -21 67 -47 82
-58z m99 -74 c59 -39 168 -120 184 -136 6 -5 -4 -2 -21 6 -17 9 -36 23 -43 31
-8 9 -20 16 -27 16 -8 0 -14 5 -14 11 0 5 -13 15 -30 20 -16 6 -30 15 -30 20
0 5 -4 9 -9 9 -6 0 -22 11 -37 25 -14 13 -30 22 -35 19 -5 -3 -9 0 -9 5 0 18
15 13 71 -26z"/>
<path d="M3870 5219 c0 -5 9 -9 20 -9 11 0 20 2 20 4 0 2 -9 6 -20 9 -11 3
-20 1 -20 -4z"/>
<path d="M4055 5210 c-3 -5 -2 -10 4 -10 5 0 13 5 16 10 3 6 2 10 -4 10 -5 0
-13 -4 -16 -10z"/>
<path d="M4148 5193 c7 -3 16 -2 19 1 4 3 -2 6 -13 5 -11 0 -14 -3 -6 -6z"/>
<path d="M4875 5120 c11 -5 34 -8 50 -8 l30 0 -30 8 c-16 4 -39 8 -50 8 l-20
1 20 -9z"/>
<path d="M5577 4927 c-4 -10 -14 -14 -29 -10 -17 3 -19 2 -9 -5 10 -7 10 -11
1 -14 -7 -2 24 -4 69 -3 55 0 81 4 81 12 0 7 -14 10 -41 7 -31 -4 -44 -1 -53
12 -11 15 -13 15 -19 1z"/>
<path d="M5768 4923 c7 -3 16 -2 19 1 4 3 -2 6 -13 5 -11 0 -14 -3 -6 -6z"/>
<path d="M5794 4898 c-4 -7 -3 -8 4 -4 15 9 113 -24 106 -35 -7 -12 17 -11 36
1 21 13 9 21 -62 36 -78 17 -75 16 -84 2z"/>
<path d="M6188 4784 c17 -8 32 -19 32 -24 0 -6 10 -10 22 -10 22 0 22 0 2 18
-11 10 -35 21 -54 25 l-35 6 33 -15z"/>
<path d="M6420 4733 c0 -14 37 -29 103 -43 31 -6 57 -15 57 -19 0 -14 53 -32
97 -34 23 0 41 -6 40 -11 -1 -6 9 -12 23 -14 l25 -4 -28 29 c-20 21 -30 25
-35 15 -7 -10 -16 -9 -48 3 -23 9 -28 13 -12 10 14 -3 34 -2 44 2 21 8 -48 31
-115 39 -49 5 -106 18 -133 29 -10 4 -18 3 -18 -2z"/>
<path d="M6510 4666 c0 -2 9 -6 20 -9 11 -3 18 -1 14 4 -5 9 -34 13 -34 5z"/>
<path d="M6875 4660 c11 -5 27 -9 35 -9 13 -1 13 0 0 9 -8 5 -24 9 -35 9 l-20
0 20 -9z"/>
<path d="M6580 4636 c28 -17 50 -21 35 -7 -6 5 -21 12 -35 15 l-25 7 25 -15z"/>
<path d="M6958 4643 c7 -3 16 -2 19 1 4 3 -2 6 -13 5 -11 0 -14 -3 -6 -6z"/>
<path d="M6773 4626 c0 -7 18 -13 46 -14 33 -1 42 1 34 9 -16 16 -80 20 -80 5z"/>
<path d="M6640 4625 c0 -7 72 -36 77 -31 3 3 -9 12 -26 20 -30 16 -51 20 -51
11z"/>
<path d="M6788 4588 c4 -4 18 -9 32 -12 14 -2 40 -10 59 -17 30 -11 36 -10 48
6 7 11 13 13 13 7 0 -7 10 -12 22 -12 l21 0 -23 20 c-13 11 -35 20 -49 20 -25
-1 -25 -1 -7 -15 18 -13 18 -15 3 -15 -10 0 -20 6 -22 13 -3 7 -24 12 -55 12
-27 0 -46 -3 -42 -7z"/>
<path d="M6995 4560 c-4 -6 3 -10 14 -10 25 0 27 6 6 13 -8 4 -17 2 -20 -3z"/>
<path d="M6805 4550 c3 -5 13 -10 21 -10 8 0 14 5 14 10 0 6 -9 10 -21 10 -11
0 -17 -4 -14 -10z"/>
<path d="M6913 4533 c9 -2 23 -2 30 0 6 3 -1 5 -18 5 -16 0 -22 -2 -12 -5z"/>
<path d="M6998 4528 c-10 -6 -10 -8 1 -8 8 0 11 -3 8 -7 -4 -3 6 -12 20 -20
18 -9 29 -11 31 -4 6 17 59 13 66 -4 3 -9 17 -15 33 -14 16 1 37 -2 48 -7 18
-7 18 -6 6 9 -7 9 -23 17 -35 17 -12 0 -29 8 -38 19 -12 14 -26 18 -54 15 -24
-3 -34 -1 -26 4 8 6 3 9 -17 9 -17 0 -36 -4 -43 -9z"/>
<path d="M7218 4503 c7 -3 16 -2 19 1 4 3 -2 6 -13 5 -11 0 -14 -3 -6 -6z"/>
<path d="M7370 4465 c19 -7 44 -14 55 -14 11 0 0 7 -25 15 -57 17 -77 17 -30
-1z"/>
<path d="M7510 4396 c0 -21 10 -25 81 -30 43 -4 59 -2 49 4 -8 5 -26 10 -40
10 -14 0 -38 7 -54 15 -35 18 -36 18 -36 1z"/>
<path d="M7743 4390 c14 -11 28 -20 31 -20 3 0 1 9 -6 20 -7 11 -21 20 -32 20
-16 0 -15 -3 7 -20z"/>
<path d="M7785 4400 c3 -5 11 -10 16 -10 6 0 7 5 4 10 -3 6 -11 10 -16 10 -6
0 -7 -4 -4 -10z"/>
<path d="M7845 4380 c3 -5 11 -10 16 -10 6 0 7 5 4 10 -3 6 -11 10 -16 10 -6
0 -7 -4 -4 -10z"/>
<path d="M7905 4370 c3 -5 8 -10 11 -10 2 0 4 5 4 10 0 6 -5 10 -11 10 -5 0
-7 -4 -4 -10z"/>
<path d="M7940 4356 c0 -2 7 -6 15 -10 8 -3 15 -1 15 4 0 6 -7 10 -15 10 -8 0
-15 -2 -15 -4z"/>
<path d="M7820 4341 c0 -6 4 -13 10 -16 6 -3 7 1 4 9 -7 18 -14 21 -14 7z"/>
<path d="M7847 4331 c3 -11 12 -19 21 -19 10 1 27 -2 40 -6 37 -12 25 2 -20
24 -51 24 -47 24 -41 1z"/>
<path d="M7525 4320 c3 -5 14 -10 23 -10 10 0 35 -9 57 -20 22 -11 48 -20 60
-19 12 0 5 6 -20 15 -22 8 -54 21 -72 29 -36 17 -57 19 -48 5z"/>
<path d="M7770 4310 c19 -13 30 -13 30 0 0 6 -10 10 -22 10 -19 0 -20 -2 -8
-10z"/>
<path d="M7950 4300 c8 -5 20 -10 25 -10 6 0 3 5 -5 10 -8 5 -19 10 -25 10 -5
0 -3 -5 5 -10z"/>
<path d="M7560 4270 c0 -5 4 -10 9 -10 6 0 13 5 16 10 3 6 -1 10 -9 10 -9 0
-16 -4 -16 -10z"/>
<path d="M7925 4272 c13 -13 85 -35 92 -28 6 6 -31 22 -75 32 -18 4 -24 3 -17
-4z"/>
<path d="M7860 4256 c0 -2 7 -7 16 -10 8 -3 12 -2 9 4 -6 10 -25 14 -25 6z"/>
<path d="M7778 4214 c17 -8 32 -19 32 -24 0 -6 6 -10 13 -10 6 0 -1 12 -16 25
-15 14 -36 25 -45 24 -10 0 -3 -7 16 -15z"/>
<path d="M8020 4220 c0 -6 7 -10 15 -10 8 0 15 2 15 4 0 2 -7 6 -15 10 -8 3
-15 1 -15 -4z"/>
<path d="M8310 4215 c33 -19 49 -19 24 0 -10 8 -26 14 -34 14 -9 0 -4 -6 10
-14z"/>
<path d="M8065 4180 c3 -5 11 -10 16 -10 6 0 7 5 4 10 -3 6 -11 10 -16 10 -6
0 -7 -4 -4 -10z"/>
<path d="M8330 4146 c0 -2 7 -7 16 -10 8 -3 12 -2 9 4 -6 10 -25 14 -25 6z"/>
<path d="M8230 4130 c20 -13 33 -13 25 0 -3 6 -14 10 -23 10 -15 0 -15 -2 -2
-10z"/>
<path d="M8434 4096 c11 -9 24 -16 30 -16 12 0 7 5 -24 19 -24 11 -24 11 -6
-3z"/>
<path d="M8245 4080 c21 -10 45 -26 51 -35 7 -9 29 -20 49 -25 20 -5 35 -6 32
-4 -16 17 -120 72 -143 77 -23 5 -21 3 11 -13z"/>
<path d="M8325 4080 c70 -30 158 -60 150 -51 -12 12 -140 61 -158 60 -6 0 -3
-4 8 -9z"/>
<path d="M8240 4029 c0 -5 4 -9 9 -9 5 0 17 -3 27 -7 11 -4 15 -3 11 4 -9 14
-47 24 -47 12z"/>
<path d="M8424 4016 c11 -9 27 -16 35 -16 21 0 2 16 -29 24 -24 7 -24 6 -6 -8z"/>
<path d="M8770 4020 c8 -5 20 -10 25 -10 6 0 3 5 -5 10 -8 5 -19 10 -25 10 -5
0 -3 -5 5 -10z"/>
<path d="M8290 3996 c0 -2 6 -9 14 -15 10 -9 15 -8 20 4 4 10 -1 15 -14 15
-11 0 -20 -2 -20 -4z"/>
<path d="M8510 3985 c19 -7 49 -19 65 -26 17 -7 34 -11 38 -10 5 1 6 -3 3 -8
-3 -5 -16 -7 -29 -4 -18 5 -20 3 -10 -7 10 -11 18 -11 38 -2 15 7 24 8 20 2
-3 -5 -1 -10 5 -10 6 0 9 -4 6 -8 -2 -4 7 -9 20 -10 14 -1 32 -9 41 -18 9 -8
22 -13 29 -10 8 3 13 0 11 -7 -1 -7 9 -13 23 -13 14 -1 34 -5 44 -10 15 -6 17
-4 11 7 -7 11 -5 11 10 -1 11 -9 16 -10 11 -2 -9 14 12 16 34 2 10 -6 11 -10
3 -10 -7 0 -13 -4 -13 -10 0 -5 9 -10 21 -10 12 0 17 4 14 11 -4 6 10 2 31 -9
22 -11 50 -23 64 -26 23 -7 23 -6 -5 14 -54 38 -123 69 -167 76 -34 4 -40 3
-28 -6 13 -10 12 -11 -3 -6 -10 3 -23 6 -28 6 -6 0 -8 4 -5 8 7 11 -119 78
-181 97 -26 8 -61 15 -78 14 l-30 0 35 -14z"/>
<path d="M9080 3856 c0 -2 7 -7 16 -10 8 -3 12 -2 9 4 -6 10 -25 14 -25 6z"/>
<path d="M9110 3750 c0 -5 9 -12 20 -15 12 -4 29 -16 39 -27 14 -14 24 -17 36
-11 14 8 14 11 2 21 -20 17 -97 43 -97 32z"/>
<path d="M9069 3699 c12 -12 25 -18 29 -14 4 4 -2 13 -12 21 -30 22 -43 17
-17 -7z"/>
<path d="M9130 3646 c0 -3 14 -11 30 -20 31 -15 39 -9 18 12 -11 11 -48 17
-48 8z"/>
<path d="M9340 3620 c0 -10 89 -52 102 -47 7 2 -3 12 -24 22 -20 10 -36 21
-34 24 2 3 -7 6 -20 6 -13 0 -24 -2 -24 -5z"/>
<path d="M9200 3601 c0 -6 5 -11 11 -11 6 0 26 -7 45 -16 41 -19 56 -12 22 10
-32 21 -78 31 -78 17z"/>
<path d="M9455 3550 c3 -5 11 -10 16 -10 6 0 7 5 4 10 -3 6 -11 10 -16 10 -6
0 -7 -4 -4 -10z"/>
<path d="M9555 3460 c3 -5 11 -10 16 -10 6 0 7 5 4 10 -3 6 -11 10 -16 10 -6
0 -7 -4 -4 -10z"/>
<path d="M9716 3435 c25 -19 40 -19 24 0 -7 8 -20 15 -28 15 -13 0 -12 -3 4
-15z"/>
<path d="M9740 3366 c0 -2 7 -7 16 -10 8 -3 12 -2 9 4 -6 10 -25 14 -25 6z"/>
<path d="M10135 3181 c-3 -5 -2 -12 3 -15 5 -3 9 1 9 9 0 17 -3 19 -12 6z"/>
<path d="M10479 3065 c24 -14 46 -24 48 -21 8 8 -50 46 -71 46 -15 0 -9 -7 23
-25z"/>
<path d="M9690 3336 c0 -2 8 -10 18 -17 15 -13 16 -12 3 4 -13 16 -21 21 -21
13z"/>
</g>
</svg>
